<svg xmlns="http://www.w3.org/2000/svg" viewBox="0 0 989.75 266.35"><defs><style>.cls-1,.cls-2{fill:#fff;}.cls-2,.cls-3{fill-rule:evenodd;}.cls-3{fill:#ed1c24;}</style></defs><title>LOGO_kotli_DTM_site_1000x280px_white_crv_ru</title><g id="Layer_5" data-name="Layer 5"><path class="cls-1" d="M294.71,156.67q0,9.95-5,15.63t-14,5.69q-9.15,0-14.12-5.59t-5-15.79q0-10.11,5-15.67t14.16-5.57q8.92,0,13.94,5.67T294.71,156.67Zm-33,0q0,8.42,3.58,12.76t10.41,4.34q6.89,0,10.39-4.33t3.51-12.77q0-8.35-3.49-12.67t-10.36-4.32q-6.87,0-10.46,4.34T261.72,156.67Z" transform="translate(-5.89 -5.13)"/><path class="cls-1" d="M316.69,177.43h-4.82V140.3H298.76V136h31v4.28H316.69Z" transform="translate(-5.89 -5.13)"/><path class="cls-1" d="M372,156.67q0,9.95-5,15.63T353,178q-9.15,0-14.12-5.59t-5-15.79q0-10.11,5-15.67T353,135.37q8.93,0,13.94,5.67T372,156.67Zm-33,0q0,8.42,3.59,12.76c2.39,2.9,5.85,4.34,10.41,4.34s8-1.44,10.39-4.33,3.51-7.14,3.51-12.77-1.17-9.8-3.5-12.67-5.78-4.32-10.35-4.32S345,141.13,342.56,144,339,151.14,339,156.67Z" transform="translate(-5.89 -5.13)"/><path class="cls-1" d="M412.1,177.43h-4.82V140.3H386v37.13H381.2V136h30.9Z" transform="translate(-5.89 -5.13)"/><path class="cls-1" d="M423.54,136H428v23q0,6.38-.39,11.52h.22L451.1,136h5.26v41.41h-4.53v-22.8q0-5.7.48-11.95h-.25l-23.25,34.75h-5.27Z" transform="translate(-5.89 -5.13)"/><path class="cls-1" d="M480.43,177.43h-4.81V140.3H462.51V136h31v4.28H480.43Z" transform="translate(-5.89 -5.13)"/><path class="cls-1" d="M522.86,177.43H499.78V136h23.08v4.28H504.59v13.34h17.16v4.25H504.59v15.23h18.27Z" transform="translate(-5.89 -5.13)"/><path class="cls-1" d="M561.49,177.43h-4.82V140.3H543.22l-.88,6.8q-1.73,13.56-3,19.83t-3.47,8.74a7.07,7.07,0,0,1-5.72,2.41,9.63,9.63,0,0,1-3.77-.71v-4.05a7.32,7.32,0,0,0,3.2.74,3.43,3.43,0,0,0,2.62-1.23,11,11,0,0,0,2-4.28A113.58,113.58,0,0,0,536.33,157q1.3-8.51,2.9-21h22.26Z" transform="translate(-5.89 -5.13)"/><path class="cls-1" d="M601.45,165.36c0,3.84-1.28,6.8-3.84,8.91s-6.21,3.16-11,3.16H572.87V136h4.82v17.67h8.24q7.56,0,11.54,3T601.45,165.36Zm-23.76,7.9h8.46q10.32,0,10.31-7.9a6.32,6.32,0,0,0-2.64-5.62q-2.66-1.8-8.49-1.8h-7.64Z" transform="translate(-5.89 -5.13)"/><path class="cls-1" d="M641.61,177.43h-4.82V157.94H615v19.49h-4.81V136H615v17.62h21.81V136h4.82Z" transform="translate(-5.89 -5.13)"/><path class="cls-1" d="M679,177.43l-5.16-13.17H657.24l-5.1,13.17h-4.87l16.37-41.58h4.05L684,177.43Zm-6.66-17.5-4.81-12.83c-.62-1.63-1.27-3.62-1.93-6a53.44,53.44,0,0,1-1.78,6l-4.87,12.83Z" transform="translate(-5.89 -5.13)"/><path class="cls-1" d="M702,160.15l-10.85,17.28h-5.69L697,159.33A12.33,12.33,0,0,1,690.4,155a12.56,12.56,0,0,1-2.07-7.41,10.18,10.18,0,0,1,3.84-8.54q3.84-3,11.63-3h11.38v41.41h-4.81V160.15Zm8.41-20h-6.43q-5.19,0-7.87,1.78t-2.7,5.81q0,8.24,10.74,8.24h6.26Z" transform="translate(-5.89 -5.13)"/><path class="cls-1" d="M754.38,177.43h-4.82V140.3H736.45V136h31v4.28H754.38Z" transform="translate(-5.89 -5.13)"/><path class="cls-1" d="M796.8,177.43H773.72V136H796.8v4.28H778.53v13.34H795.7v4.25H778.53v15.23H796.8Z" transform="translate(-5.89 -5.13)"/><path class="cls-1" d="M833.53,177.43h-5.46l-11.13-18.21-11.33,18.21h-5.1l13.76-21.64L801.45,136h5.32l10.28,16.4L827.41,136h5.13l-12.83,19.6Z" transform="translate(-5.89 -5.13)"/><path class="cls-1" d="M870.89,177.43h-4.82V157.94h-21.8v19.49h-4.82V136h4.82v17.62h21.8V136h4.82Z" transform="translate(-5.89 -5.13)"/><path class="cls-1" d="M882.3,136h4.5v23q0,6.38-.39,11.52h.22L909.86,136h5.26v41.41h-4.53v-22.8q0-5.7.48-11.95h-.25l-23.25,34.75H882.3Z" transform="translate(-5.89 -5.13)"/><path class="cls-1" d="M956.24,177.43h-5.83l-19.14-21v21h-4.82V136h4.82v20l18.66-20h5.52l-18.32,20.11Z" transform="translate(-5.89 -5.13)"/><path class="cls-1" d="M988,177.43l-5.15-13.17h-16.6l-5.09,13.17h-4.88l16.37-41.58h4L993,177.43Zm-6.65-17.5-4.82-12.83q-.93-2.44-1.92-6a53.64,53.64,0,0,1-1.79,6l-4.87,12.83Z" transform="translate(-5.89 -5.13)"/><path class="cls-1" d="M295.29,245.16q0,7.28-3.69,11.45t-10.24,4.18q-6.71,0-10.34-4.1t-3.65-11.57q0-7.41,3.66-11.49t10.37-4.08q6.54,0,10.21,4.15T295.29,245.16Zm-24.18,0c0,4.11.87,7.22,2.62,9.35s4.3,3.18,7.63,3.18,5.9-1.06,7.62-3.17,2.57-5.24,2.57-9.36-.85-7.18-2.56-9.29-4.24-3.16-7.59-3.16-5.92,1.06-7.67,3.18S271.11,241.11,271.11,245.16Z" transform="translate(-5.89 -5.13)"/><path class="cls-1" d="M325.89,249a11.39,11.39,0,0,1-2.93,8.23,12.34,12.34,0,0,1-8.21,3.49v9.88h-3.4V260.7a12,12,0,0,1-8.14-3.53,12.77,12.77,0,0,1,0-16.41,12.5,12.5,0,0,1,8.27-3.47v-9.21h3.28v9.21a12.46,12.46,0,0,1,8.18,3.59A11.26,11.26,0,0,1,325.89,249Zm-22.05,0a9.64,9.64,0,0,0,1.82,6.24q1.83,2.27,5.81,2.64V240.18a8.34,8.34,0,0,0-5.74,2.5Q303.84,244.83,303.84,249Zm18.49,0q0-7.95-7.58-8.76v17.64q3.94-.39,5.76-2.66A9.66,9.66,0,0,0,322.33,249Z" transform="translate(-5.89 -5.13)"/><path class="cls-1" d="M335.15,237.63v14.42l-.15,3.78-.06,1.18,12.31-19.38h4.29v22.74h-3.21v-13.9l.06-2.74.1-2.7-12.28,19.34h-4.3V237.63Z" transform="translate(-5.89 -5.13)"/><path class="cls-1" d="M381,268.24h-3.44v-7.87H358.85V237.63h3.44V257.4h12.08V237.63h3.45V257.4H381Z" transform="translate(-5.89 -5.13)"/><path class="cls-1" d="M388.69,237.63v14.42l-.15,3.78-.06,1.18,12.31-19.38h4.29v22.74h-3.21v-13.9l.06-2.74.1-2.7-12.28,19.34h-4.3V237.63Z" transform="translate(-5.89 -5.13)"/><path class="cls-1" d="M426.38,260.37l-.69-3.24h-.17a9.53,9.53,0,0,1-3.39,2.9,10.41,10.41,0,0,1-4.22.76,7.6,7.6,0,0,1-5.3-1.75,6.35,6.35,0,0,1-1.92-5q0-6.89,11-7.22l3.86-.12v-1.41a5.76,5.76,0,0,0-1.16-4,4.72,4.72,0,0,0-3.68-1.27,15,15,0,0,0-6.43,1.74l-1.06-2.64a16.57,16.57,0,0,1,7.7-1.95q4.06,0,6,1.81c1.3,1.2,2,3.13,2,5.79v15.52Zm-7.79-2.43a7,7,0,0,0,5.06-1.76,6.54,6.54,0,0,0,1.83-4.94v-2.06l-3.44.15c-2.74.1-4.72.52-5.93,1.28a3.83,3.83,0,0,0-1.81,3.51,3.57,3.57,0,0,0,1.13,2.85A4.68,4.68,0,0,0,418.59,257.94Z" transform="translate(-5.89 -5.13)"/><path class="cls-1" d="M453,260.37h-3.49v-19.8h-6.82a84.16,84.16,0,0,1-1.56,11.73,16.43,16.43,0,0,1-2.58,6.35,4.94,4.94,0,0,1-4,2,5.16,5.16,0,0,1-1.79-.25v-2.55a4.13,4.13,0,0,0,1,.12q2.38,0,3.8-5a83.76,83.76,0,0,0,2.14-15.31H453Z" transform="translate(-5.89 -5.13)"/><path class="cls-1" d="M463.73,247h7q8.72,0,8.72,6.41a6.18,6.18,0,0,1-2.27,5.15q-2.28,1.79-6.65,1.78H460.28V237.63h3.45Zm0,3v7.5h6.64a7.6,7.6,0,0,0,4.19-1,3.21,3.21,0,0,0,1.45-2.88,3.07,3.07,0,0,0-1.33-2.77,8.32,8.32,0,0,0-4.41-.89Z" transform="translate(-5.89 -5.13)"/><path class="cls-1" d="M488.88,237.63v9.52h12.74v-9.52h3.45v22.74h-3.45V250.12H488.88v10.25h-3.44V237.63Z" transform="translate(-5.89 -5.13)"/><path class="cls-1" d="M515.82,247H522q4.34,0,6.42,1.6a5.72,5.72,0,0,1,2.09,4.81,6.23,6.23,0,0,1-2.21,5.18q-2.21,1.75-6.51,1.75h-9.44V237.63h3.45Zm0,3v7.5h5.83q5.48,0,5.48-3.84a3.14,3.14,0,0,0-1.27-2.78,7.83,7.83,0,0,0-4.32-.88Zm22,10.38h-3.44V237.63h3.44Z" transform="translate(-5.89 -5.13)"/><path class="cls-1" d="M548.33,237.63v14.42l-.14,3.78-.06,1.18,12.3-19.38h4.3v22.74h-3.22v-13.9l.06-2.74.11-2.7-12.29,19.34H545.1V237.63Zm6.5-3q-3.84,0-5.6-1.49c-1.18-1-1.84-2.61-2-4.88h3.23a4.45,4.45,0,0,0,1.13,3,4.92,4.92,0,0,0,3.29.86,4.67,4.67,0,0,0,3.17-.92,4.47,4.47,0,0,0,1.25-2.94h3.26a6.62,6.62,0,0,1-2.09,4.82C559.26,234.1,557.38,234.62,554.83,234.62Z" transform="translate(-5.89 -5.13)"/><path class="cls-1" d="M592.16,260.79a9.71,9.71,0,0,1-7.64-3q-2.71-3-2.71-8.61c0-3.8.91-6.74,2.75-8.82s4.44-3.11,7.83-3.11a15.9,15.9,0,0,1,3.28.35,11.4,11.4,0,0,1,2.57.83l-1.06,2.93a16.56,16.56,0,0,0-2.49-.76,11,11,0,0,0-2.38-.3q-6.93,0-6.93,8.84a10.53,10.53,0,0,0,1.69,6.44,5.9,5.9,0,0,0,5,2.24,15.27,15.27,0,0,0,5.83-1.23v3.05A12.41,12.41,0,0,1,592.16,260.79Z" transform="translate(-5.89 -5.13)"/><path class="cls-1" d="M617.29,260.37l-.68-3.24h-.17a9.53,9.53,0,0,1-3.39,2.9,10.44,10.44,0,0,1-4.22.76,7.62,7.62,0,0,1-5.31-1.75,6.35,6.35,0,0,1-1.92-5q0-6.89,11-7.22l3.86-.12v-1.41a5.76,5.76,0,0,0-1.15-4,4.73,4.73,0,0,0-3.68-1.27,15,15,0,0,0-6.43,1.74l-1.06-2.64a16.57,16.57,0,0,1,7.7-1.95q4.07,0,6,1.81t2,5.79v15.52Zm-7.78-2.43a7,7,0,0,0,5-1.76,6.51,6.51,0,0,0,1.84-4.94v-2.06l-3.44.15c-2.74.1-4.72.52-5.93,1.28a3.83,3.83,0,0,0-1.81,3.51,3.54,3.54,0,0,0,1.13,2.85A4.68,4.68,0,0,0,609.51,257.94Z" transform="translate(-5.89 -5.13)"/><path class="cls-1" d="M630.18,237.63v14.42l-.15,3.78L630,257l12.31-19.38h4.29v22.74h-3.21v-13.9l.06-2.74.1-2.7-12.28,19.34h-4.3V237.63Zm6.5-3q-3.84,0-5.61-1.49c-1.17-1-1.83-2.61-2-4.88h3.24a4.41,4.41,0,0,0,1.13,3,4.92,4.92,0,0,0,3.29.86,4.64,4.64,0,0,0,3.16-.92,4.43,4.43,0,0,0,1.26-2.94h3.26a6.66,6.66,0,0,1-2.1,4.82Q640.5,234.62,636.68,234.62Z" transform="translate(-5.89 -5.13)"/><path class="cls-1" d="M669.22,240.57h-7.39v19.8h-3.45v-19.8h-7.3v-2.94h18.14Z" transform="translate(-5.89 -5.13)"/><path class="cls-1" d="M688.2,260.37h-3.44V237.63h19.09v22.74h-3.49V240.61H688.2Z" transform="translate(-5.89 -5.13)"/><path class="cls-1" d="M721.74,260.79a10,10,0,0,1-4.06-.82,7.66,7.66,0,0,1-3.08-2.53h-.25a29.83,29.83,0,0,1,.25,3.78v9.36h-3.45V237.63H714l.47,3.11h.17a7.87,7.87,0,0,1,3.09-2.7,9.48,9.48,0,0,1,4-.83,8.41,8.41,0,0,1,7,3.09c1.64,2.06,2.46,5,2.46,8.68s-.83,6.63-2.5,8.7A8.42,8.42,0,0,1,721.74,260.79Zm-.5-20.65c-2.32,0-4,.64-5,1.93s-1.57,3.33-1.6,6.14V249q0,4.78,1.6,6.86t5.12,2.06a5.31,5.31,0,0,0,4.62-2.39,11.32,11.32,0,0,0,1.67-6.57,10.91,10.91,0,0,0-1.67-6.53A5.48,5.48,0,0,0,721.24,240.14Z" transform="translate(-5.89 -5.13)"/><path class="cls-1" d="M756.83,249q0,5.57-2.8,8.68a9.88,9.88,0,0,1-7.74,3.13,10.21,10.21,0,0,1-5.42-1.44,9.39,9.39,0,0,1-3.65-4.11,14.25,14.25,0,0,1-1.29-6.26q0-5.56,2.78-8.67a9.87,9.87,0,0,1,7.72-3.1,9.64,9.64,0,0,1,7.59,3.18C755.89,242.5,756.83,245.37,756.83,249Zm-17.33,0c0,2.9.58,5.12,1.74,6.64a6.93,6.93,0,0,0,10.27,0c1.17-1.52,1.75-3.73,1.75-6.65s-.58-5.09-1.75-6.59a6.17,6.17,0,0,0-5.18-2.25,6.07,6.07,0,0,0-5.11,2.22C740.08,243.84,739.5,246,739.5,249Z" transform="translate(-5.89 -5.13)"/><path class="cls-1" d="M766.11,237.63v14.42l-.15,3.78L765.9,257l12.3-19.38h4.3v22.74h-3.22v-13.9l.06-2.74.11-2.7-12.29,19.34h-4.29V237.63Z" transform="translate(-5.89 -5.13)"/><path class="cls-1" d="M794.14,247.07c4.3,0,6.46-1.19,6.46-3.57s-1.75-3.36-5.23-3.36a13,13,0,0,0-2.91.29,21.84,21.84,0,0,0-3.42,1.16l-1.23-2.8a18.67,18.67,0,0,1,7.7-1.58,10.53,10.53,0,0,1,6.19,1.61,5.11,5.11,0,0,1,2.26,4.39q0,3.81-4.26,5v.17a7.65,7.65,0,0,1,3.82,2.19,5.3,5.3,0,0,1,1.21,3.55,5.62,5.62,0,0,1-2.55,4.91,12.19,12.19,0,0,1-7,1.76,16,16,0,0,1-7.6-1.48v-3.15a17.91,17.91,0,0,0,7.68,1.78,8.14,8.14,0,0,0,4.51-1,3.36,3.36,0,0,0,1.53-3c0-2.64-2.15-4-6.45-4h-3.16v-2.92Z" transform="translate(-5.89 -5.13)"/><path class="cls-1" d="M828.78,243.33a4.34,4.34,0,0,1-1.28,3.38,7,7,0,0,1-3.58,1.54v.19a7.34,7.34,0,0,1,4.24,1.7,4.78,4.78,0,0,1,1.34,3.61,5.74,5.74,0,0,1-2.33,4.9q-2.34,1.73-6.82,1.72h-10V237.63h10Q828.77,237.63,828.78,243.33Zm-3.37.34a2.46,2.46,0,0,0-1.27-2.36,8.39,8.39,0,0,0-3.87-.7h-6.5V247h5.83a9.38,9.38,0,0,0,4.51-.79A2.77,2.77,0,0,0,825.41,243.67Zm.65,9.85a2.92,2.92,0,0,0-1.4-2.69A9.5,9.5,0,0,0,820,250h-6.25v7.5h6.33C824.07,257.49,826.06,256.16,826.06,253.52Z" transform="translate(-5.89 -5.13)"/><path class="cls-1" d="M854.13,249q0,5.57-2.8,8.68a9.86,9.86,0,0,1-7.74,3.13,10.18,10.18,0,0,1-5.41-1.44,9.41,9.41,0,0,1-3.66-4.11,14.39,14.39,0,0,1-1.28-6.26c0-3.71.92-6.6,2.78-8.67a9.86,9.86,0,0,1,7.72-3.1,9.6,9.6,0,0,1,7.58,3.18C853.2,242.5,854.13,245.37,854.13,249Zm-17.32,0c0,2.9.58,5.12,1.74,6.64a6.92,6.92,0,0,0,10.26,0c1.17-1.52,1.76-3.73,1.76-6.65s-.59-5.09-1.76-6.59a6.16,6.16,0,0,0-5.18-2.25,6.06,6.06,0,0,0-5.1,2.22C837.38,243.84,836.81,246,836.81,249Z" transform="translate(-5.89 -5.13)"/><path class="cls-1" d="M879.93,268.24h-3.34v-7.87h-15.9v7.87h-3.32V257.4h1.79a29.66,29.66,0,0,0,4.35-8.86,37.7,37.7,0,0,0,1.64-10.91h11.52V257.4h3.26Zm-6.58-10.84V240.34h-5.1a38,38,0,0,1-1.78,9.33,26.14,26.14,0,0,1-3.74,7.73Z" transform="translate(-5.89 -5.13)"/><path class="cls-1" d="M887.71,237.63v14.42l-.14,3.78L887.5,257l12.31-19.38h4.3v22.74h-3.22v-13.9l.06-2.74.11-2.7-12.29,19.34h-4.3V237.63Z" transform="translate(-5.89 -5.13)"/><path class="cls-1" d="M926.75,240.57h-7.39v19.8h-3.45v-19.8h-7.3v-2.94h18.14Z" transform="translate(-5.89 -5.13)"/><path class="cls-1" d="M940.86,260.79a10.43,10.43,0,0,1-8-3.08c-1.95-2-2.92-4.89-2.92-8.53s.91-6.57,2.71-8.73a9,9,0,0,1,7.27-3.24,8.6,8.6,0,0,1,6.77,2.81,10.79,10.79,0,0,1,2.49,7.42v2.18H933.55a9,9,0,0,0,2,6.08,7,7,0,0,0,5.4,2.08,18.36,18.36,0,0,0,7.26-1.54v3.07a17.75,17.75,0,0,1-3.45,1.13A19.28,19.28,0,0,1,940.86,260.79Zm-.94-20.69a5.64,5.64,0,0,0-4.37,1.78,8.25,8.25,0,0,0-1.91,4.94h11.89a7.56,7.56,0,0,0-1.46-5A5.08,5.08,0,0,0,939.92,240.1Z" transform="translate(-5.89 -5.13)"/><path class="cls-1" d="M972.05,260.37h-3.49v-19.8h-6.83a82.9,82.9,0,0,1-1.55,11.73,16.42,16.42,0,0,1-2.59,6.35,4.92,4.92,0,0,1-4,2,5.12,5.12,0,0,1-1.79-.25v-2.55a4.13,4.13,0,0,0,1,.12q2.38,0,3.8-5a83.06,83.06,0,0,0,2.13-15.31h13.31Z" transform="translate(-5.89 -5.13)"/><path class="cls-1" d="M980.49,260.37h-4l6.53-9.61a7,7,0,0,1-4-2.25,6.27,6.27,0,0,1-1.4-4.2,6.11,6.11,0,0,1,2.09-4.9,8.76,8.76,0,0,1,5.85-1.78h10.13v22.74H992.2v-9.09h-5.75Zm.44-16q0,3.94,5.73,3.94h5.54v-7.68H986Q980.93,240.61,980.93,244.35Z" transform="translate(-5.89 -5.13)"/></g><g id="Layer_4" data-name="Layer 4"><path class="cls-2" d="M5.89,205.74H37a43.55,43.55,0,0,1,19.16,4,30.41,30.41,0,0,1,13,11.46,35.1,35.1,0,0,1,0,34.74,30.41,30.41,0,0,1-13,11.46,43.55,43.55,0,0,1-19.16,4H5.89Zm30.33,50.9q8.46,0,13.57-4.79t5.12-13.24q0-8.45-5.12-13.24t-13.57-4.79H24.48v36.06Zm60.29-36.15H76.32V205.74H135.2v14.75H115.1v51H96.51Zm107.07,51-.19-34.84L186.49,265h-8.26l-16.81-27.42v33.9H144.23V205.74h15.31l23.1,37.94,22.54-37.94h15.3l.19,65.74Z" transform="translate(-5.89 -5.13)"/><path class="cls-3" d="M134.76,134,120.81,148l-29,29-43-43L5.89,177V134l43-43,43,43,43-43,21.48,21.48Zm43,0,43-43v43l-43,43-21.47-21.48Z" transform="translate(-5.89 -5.13)"/><path class="cls-3" d="M48.84,48.09,5.89,91V48.09l43-43L70.32,26.61Zm128.87,0,43-43v43l-43,43-43-42.95-43,43L70.32,69.57,91.8,48.09l43-43Z" transform="translate(-5.89 -5.13)"/></g></svg>